<svg width="20" height="20" viewBox="0 0 20 20" fill="none" xmlns="http://www.w3.org/2000/svg">
<g id="Frame" clip-path="url(#clip0_3_679)">
<path id="Vector" d="M19.9992 9.375C19.9992 13.8633 15.5226 17.5 9.99921 17.5C8.54999 17.5 7.17499 17.25 5.9328 16.8008C5.46795 17.1406 4.71014 17.6055 3.81171 17.9961C2.87421 18.4023 1.7453 18.75 0.624205 18.75C0.370299 18.75 0.143737 18.5977 0.0460803 18.3633C-0.051576 18.1289 0.00311152 17.8633 0.178893 17.6836L0.190612 17.6719C0.20233 17.6602 0.217955 17.6445 0.241393 17.6172C0.284362 17.5703 0.350768 17.4961 0.432799 17.3945C0.592955 17.1992 0.807799 16.9102 1.02655 16.5508C1.41717 15.9023 1.78827 15.0508 1.86249 14.0938C0.690612 12.7656 -0.000794723 11.1367 -0.000794723 9.375C-0.000794723 4.88672 4.47577 1.25 9.99921 1.25C15.5226 1.25 19.9992 4.88672 19.9992 9.375Z" fill="black"/>
</g>
<defs>
<clipPath id="clip0_3_679">
<rect width="20" height="20" fill="white"/>
</clipPath>
</defs>
</svg>
