<svg width="20" height="18" viewBox="0 0 20 18" fill="none" xmlns="http://www.w3.org/2000/svg">
<g id="Frame" clip-path="url(#clip0_3_694)">
<path id="Vector" d="M19.9935 8.98242C19.9935 9.61523 19.4727 10.1109 18.8824 10.1109H17.7713L17.7956 15.743C17.7956 15.8379 17.7886 15.9328 17.7782 16.0277V16.5973C17.7782 17.3742 17.1567 18.0035 16.3893 18.0035H15.8338C15.7956 18.0035 15.7574 18.0035 15.7192 18C15.6706 18.0035 15.622 18.0035 15.5734 18.0035L14.4449 18H13.6115C12.8442 18 12.2227 17.3707 12.2227 16.5938V15.75V13.5C12.2227 12.8777 11.7261 12.375 11.1115 12.375H8.88932C8.27474 12.375 7.77821 12.8777 7.77821 13.5V15.75V16.5938C7.77821 17.3707 7.15668 18 6.38932 18H5.55599H4.44835C4.39627 18 4.34418 17.9965 4.2921 17.993C4.25043 17.9965 4.20877 18 4.1671 18H3.61155C2.84418 18 2.22266 17.3707 2.22266 16.5938V12.6562C2.22266 12.6246 2.22266 12.5895 2.22613 12.5578V10.1074H1.11502C0.490017 10.1074 0.00390625 9.61523 0.00390625 8.97891C0.00390625 8.6625 0.108073 8.38125 0.351128 8.13516L9.25043 0.28125C9.49349 0.0351562 9.77127 0 10.0143 0C10.2574 0 10.5352 0.0703125 10.7435 0.246094L19.6115 8.13867C19.8893 8.38477 20.0282 8.66602 19.9935 8.98242Z" fill="black"/>
</g>
<defs>
<clipPath id="clip0_3_694">
<rect width="20" height="18" fill="white"/>
</clipPath>
</defs>
</svg>
